{"title":"The.Prince.2014.AVI.BRRip.360p.DivX.NLaudio.{Th3Sp3cialist}","uid":10941987,"size":1020774760,"categoryP":"video","categoryS":"hd___movies","magnet":"?xt=urn:btih:a0f01623f997a4e81c2b08293871ab8dd4936a71&amp;dn=The.Prince.2014.AVI.BRRip.360p.DivX.NLaudio.%7BTh3Sp3cialist%7D&amp;tr=udp%3A%2F%2Ftracker.openbittorrent.com%3A80&amp;tr=udp%3A%2F%2Fopen.demonii.com%3A1337&amp;tr=udp%3A%2F%2Ftracker.coppersurfer.tk%3A6969&amp;tr=udp%3A%2F%2Fexodus.desync.com%3A6969","seeders":1,"leechers":0,"uploader":"HOLLANDmovies","files":-1,"time":1409550070,"description":"THE PRINCE 2014 (DivX 360p) \n\nINFO\n\nThe Prince (2014)\n93 min - Action | Thriller\n\nA retired assassin is drawn back into the life he gave up when his daughter is kidnapped. To rescue her, he must confront his former rival.\n\nDirector: Brian A Miller\nWriters: Andre Fabrizio, Jeremy Passmore\nStars: Jason Patric, Jessica Lowndes, Gia Mantegna \n\nGENERAL:\n\nComplete name : The.Prince.2014.AVI.BRRip.720p.DivX.NLaudio.{Th3Sp3cialist}.avi\nFormat : AVI\nFormat/Info : Audio Video Interleave\nFormat profile : OpenDML\nFile size : 1.99 GiB\nDuration : 1h 30mn\nOverall bit rate : 3 139 Kbps\n\nVideo\nID : 0\nOriginal Source :\nFormat : xvid\nCodec ID : xvid\nDuration : 1h 30mn\nBit rate : 2 806 Kbps\nWidth : 1 280 pixels\nHeight : 720 pixels\nDisplay aspect ratio : 16:9\nFrame rate : 24.000 fps\nBits/(Pixel*Frame) : 0.127\nStream size : 1.78 GiB (89%)\n\nAudio\nID : 1\nFormat : MPEG Audio\nFormat version : Version 1\nFormat profile : Layer 3\nMode : Joint stereo\nMode extension : MS Stereo\nCodec ID : 55\nCodec ID/Hint : MP3\nDuration : 1h 30mn\nBit rate mode : Constant\nBit rate : 320 Kbps\nChannel(s) : 2 channels\nSampling rate : 48.0 KHz\nCompression mode : Lossy\nStream size : 207 MiB (10%)\nAlignment : Aligned on interleaves\nInterleave, duration : 24 ms (0.58 video frame)\n &lt;a href=&quot;\nhttp://bayimg.com/naacnaAgc&quot; rel=&quot;nofollow&quot; target=&quot;_NEW&quot;&gt;\nhttp://bayimg.com/naacnaAgc&lt;/a&gt; &lt;a href=&quot;\nhttp://bayimg.com/nAaCOaagC&quot; rel=&quot;nofollow&quot; target=&quot;_NEW&quot;&gt;\nhttp://bayimg.com/nAaCOaagC&lt;/a&gt; &lt;a href=&quot;\nhttp://bayimg.com/naAcPAaGC&quot; rel=&quot;nofollow&quot; target=&quot;_NEW&quot;&gt;\nhttp://bayimg.com/naAcPAaGC&lt;/a&gt;\n","torrent":{"xt":"urn:btih:a0f01623f997a4e81c2b08293871ab8dd4936a71","amp;dn":"The.Prince.2014.AVI.BRRip.360p.DivX.NLaudio.%7BTh3Sp3cialist%7D","amp;tr":["udp%3A%2F%2Ftracker.openbittorrent.com%3A80","udp%3A%2F%2Fopen.demonii.com%3A1337","udp%3A%2F%2Ftracker.coppersurfer.tk%3A6969","udp%3A%2F%2Fexodus.desync.com%3A6969"],"infoHash":"a0f01623f997a4e81c2b08293871ab8dd4936a71","infoHashBuffer":{"type":"Buffer","data":[160,240,22,35,249,151,164,232,28,43,8,41,56,113,171,141,212,147,106,113]},"announce":[],"urlList":[]}}